<svg xmlns="http://www.w3.org/2000/svg" xmlns:xlink="http://www.w3.org/1999/xlink" width="80" zoomAndPan="magnify" viewBox="0 0 60 60" height="80" preserveAspectRatio="xMidYMid meet" version="1.0"><defs><g/></defs><g fill="#000000" fill-opacity="1"><g transform="translate(16.510021, 41.187537)"><g><path d="M 8.84375 -12.984375 L 0.65625 -25.421875 L 8.53125 -25.421875 L 13.453125 -17.328125 L 18.4375 -25.421875 L 26.3125 -25.421875 L 18.03125 -12.984375 L 26.6875 0 L 18.796875 0 L 13.453125 -8.703125 L 8.09375 0 L 0.234375 0 Z M 8.84375 -12.984375 "/></g></g></g><g fill="#000000" fill-opacity="1"><g transform="translate(42.414843, 18.672693)"><g><path d="M 8.15625 0 L 0.609375 0 L 0.609375 -1.59375 L 3.3125 -4.328125 C 4.113281 -5.148438 4.640625 -5.71875 4.890625 -6.03125 C 5.140625 -6.351562 5.316406 -6.648438 5.421875 -6.921875 C 5.523438 -7.191406 5.578125 -7.472656 5.578125 -7.765625 C 5.578125 -8.191406 5.457031 -8.507812 5.21875 -8.71875 C 4.976562 -8.9375 4.660156 -9.046875 4.265625 -9.046875 C 3.847656 -9.046875 3.441406 -8.945312 3.046875 -8.75 C 2.648438 -8.5625 2.238281 -8.289062 1.8125 -7.9375 L 0.578125 -9.40625 C 1.109375 -9.863281 1.546875 -10.1875 1.890625 -10.375 C 2.242188 -10.5625 2.625 -10.703125 3.03125 -10.796875 C 3.445312 -10.898438 3.914062 -10.953125 4.4375 -10.953125 C 5.101562 -10.953125 5.695312 -10.828125 6.21875 -10.578125 C 6.738281 -10.335938 7.140625 -9.992188 7.421875 -9.546875 C 7.703125 -9.109375 7.84375 -8.601562 7.84375 -8.03125 C 7.84375 -7.53125 7.753906 -7.0625 7.578125 -6.625 C 7.410156 -6.1875 7.140625 -5.738281 6.765625 -5.28125 C 6.398438 -4.820312 5.757812 -4.171875 4.84375 -3.328125 L 3.453125 -2.03125 L 3.453125 -1.921875 L 8.15625 -1.921875 Z M 8.15625 0 "/></g></g></g></svg>