<svg xmlns="http://www.w3.org/2000/svg" xmlns:xlink="http://www.w3.org/1999/xlink" width="80" zoomAndPan="magnify" viewBox="0 0 60 60" height="80" preserveAspectRatio="xMidYMid meet" version="1.0"><defs><g/></defs><g fill="#000000" fill-opacity="1"><g transform="translate(1.988526, 54.771679)"><g><path d="M 12.21875 -17.9375 L 0.90625 -35.125 L 11.78125 -35.125 L 18.59375 -23.9375 L 25.484375 -35.125 L 36.34375 -35.125 L 24.921875 -17.9375 L 36.890625 0 L 25.984375 0 L 18.59375 -12.03125 L 11.1875 0 L 0.3125 0 Z M 12.21875 -17.9375 "/></g></g></g><g fill="#000000" fill-opacity="1"><g transform="translate(42.084737, 23.619303)"><g><path d="M 16.0625 0 L 1.1875 0 L 1.1875 -3.125 L 6.53125 -8.53125 C 8.113281 -10.144531 9.144531 -11.265625 9.625 -11.890625 C 10.113281 -12.515625 10.460938 -13.09375 10.671875 -13.625 C 10.890625 -14.164062 11 -14.722656 11 -15.296875 C 11 -16.148438 10.765625 -16.785156 10.296875 -17.203125 C 9.828125 -17.617188 9.195312 -17.828125 8.40625 -17.828125 C 7.582031 -17.828125 6.78125 -17.632812 6 -17.25 C 5.226562 -16.875 4.421875 -16.335938 3.578125 -15.640625 L 1.140625 -18.53125 C 2.179688 -19.425781 3.046875 -20.054688 3.734375 -20.421875 C 4.421875 -20.796875 5.171875 -21.082031 5.984375 -21.28125 C 6.804688 -21.476562 7.722656 -21.578125 8.734375 -21.578125 C 10.054688 -21.578125 11.226562 -21.332031 12.25 -20.84375 C 13.269531 -20.363281 14.0625 -19.6875 14.625 -18.8125 C 15.1875 -17.9375 15.46875 -16.9375 15.46875 -15.8125 C 15.46875 -14.832031 15.296875 -13.910156 14.953125 -13.046875 C 14.609375 -12.191406 14.070312 -11.3125 13.34375 -10.40625 C 12.625 -9.507812 11.351562 -8.226562 9.53125 -6.5625 L 6.796875 -3.984375 L 6.796875 -3.78125 L 16.0625 -3.78125 Z M 16.0625 0 "/></g></g></g></svg>