<svg xmlns="http://www.w3.org/2000/svg" xmlns:xlink="http://www.w3.org/1999/xlink" width="80" zoomAndPan="magnify" viewBox="0 0 60 60" height="80" preserveAspectRatio="xMidYMid meet" version="1.0"><defs><clipPath id="aefbd0e0c4"><path d="M 7.300781 8 L 11 8 L 11 11 L 7.300781 11 Z M 7.300781 8 " clip-rule="nonzero"/></clipPath><clipPath id="bd3ff6dc29"><path d="M 7.300781 7 L 11 7 L 11 12 L 7.300781 12 Z M 7.300781 7 " clip-rule="nonzero"/></clipPath><clipPath id="8ff55ea475"><path d="M 48 49 L 52 49 L 52 53.425781 L 48 53.425781 Z M 48 49 " clip-rule="nonzero"/></clipPath><clipPath id="c6b9aad7f3"><path d="M 7.300781 16 L 11 16 L 11 18 L 7.300781 18 Z M 7.300781 16 " clip-rule="nonzero"/></clipPath><clipPath id="995606a5ef"><path d="M 7.300781 23 L 11 23 L 11 25 L 7.300781 25 Z M 7.300781 23 " clip-rule="nonzero"/></clipPath><clipPath id="54d8724355"><path d="M 7.300781 43 L 11 43 L 11 45 L 7.300781 45 Z M 7.300781 43 " clip-rule="nonzero"/></clipPath><clipPath id="9237ea92ae"><path d="M 7.300781 37 L 11 37 L 11 39 L 7.300781 39 Z M 7.300781 37 " clip-rule="nonzero"/></clipPath><clipPath id="d5a6a61677"><path d="M 7.300781 30 L 11 30 L 11 32 L 7.300781 32 Z M 7.300781 30 " clip-rule="nonzero"/></clipPath></defs><path fill="#ffffff" d="M 48.925781 51.625 L 9.058594 51.625 C 8.785156 51.625 8.566406 51.402344 8.566406 51.128906 L 8.566406 11.265625 C 8.566406 10.992188 8.785156 10.769531 9.058594 10.769531 C 9.332031 10.769531 9.554688 10.992188 9.554688 11.265625 L 9.554688 50.632812 L 48.925781 50.632812 C 49.199219 50.632812 49.421875 50.855469 49.421875 51.128906 C 49.421875 51.402344 49.199219 51.625 48.925781 51.625 Z M 48.925781 51.625 " fill-opacity="1" fill-rule="nonzero"/><g clip-path="url(#aefbd0e0c4)"><path fill="#ffffff" d="M 9.058594 8.457031 L 7.820312 10.601562 L 10.296875 10.601562 Z M 9.058594 8.457031 " fill-opacity="1" fill-rule="nonzero"/></g><g clip-path="url(#bd3ff6dc29)"><path fill="#ffffff" d="M 10.296875 11.097656 L 7.820312 11.097656 C 7.644531 11.097656 7.480469 11.003906 7.394531 10.851562 C 7.304688 10.695312 7.304688 10.507812 7.394531 10.355469 L 8.632812 8.210938 C 8.71875 8.058594 8.882812 7.964844 9.058594 7.964844 C 9.238281 7.964844 9.402344 8.058594 9.488281 8.210938 L 10.726562 10.355469 C 10.816406 10.507812 10.816406 10.695312 10.726562 10.851562 C 10.636719 11.003906 10.476562 11.097656 10.296875 11.097656 Z M 8.679688 10.109375 L 9.441406 10.109375 L 9.058594 9.449219 Z M 8.679688 10.109375 " fill-opacity="1" fill-rule="nonzero"/></g><path fill="#ffffff" d="M 51.496094 51.113281 L 49.019531 52.542969 L 49.019531 49.6875 Z M 51.496094 51.113281 " fill-opacity="1" fill-rule="nonzero"/><g clip-path="url(#8ff55ea475)"><path fill="#ffffff" d="M 49.019531 53.039062 C 48.9375 53.039062 48.851562 53.019531 48.773438 52.972656 C 48.621094 52.886719 48.527344 52.722656 48.527344 52.542969 L 48.527344 49.6875 C 48.527344 49.507812 48.621094 49.34375 48.773438 49.257812 C 48.925781 49.167969 49.117188 49.167969 49.269531 49.257812 L 51.746094 50.6875 C 51.898438 50.773438 51.992188 50.9375 51.992188 51.113281 C 51.992188 51.292969 51.898438 51.457031 51.746094 51.542969 L 49.269531 52.972656 C 49.191406 53.019531 49.105469 53.039062 49.019531 53.039062 Z M 49.515625 50.542969 L 49.515625 51.6875 L 50.507812 51.113281 Z M 49.515625 50.542969 " fill-opacity="1" fill-rule="nonzero"/></g><path fill="#ffffff" d="M 49.050781 17.515625 L 8.9375 17.515625 C 8.867188 17.515625 8.8125 17.460938 8.8125 17.390625 C 8.8125 17.324219 8.867188 17.269531 8.9375 17.269531 L 49.050781 17.269531 C 49.117188 17.269531 49.171875 17.324219 49.171875 17.390625 C 49.171875 17.460938 49.117188 17.515625 49.050781 17.515625 Z M 49.050781 17.515625 " fill-opacity="1" fill-rule="nonzero"/><path fill="#ffffff" d="M 49.171875 24.261719 L 9.058594 24.261719 C 8.992188 24.261719 8.9375 24.207031 8.9375 24.140625 C 8.9375 24.070312 8.992188 24.015625 9.058594 24.015625 L 49.171875 24.015625 C 49.242188 24.015625 49.296875 24.070312 49.296875 24.140625 C 49.296875 24.207031 49.242188 24.261719 49.171875 24.261719 Z M 49.171875 24.261719 " fill-opacity="1" fill-rule="nonzero"/><path fill="#ffffff" d="M 49.171875 31.011719 L 9.058594 31.011719 C 8.992188 31.011719 8.9375 30.957031 8.9375 30.886719 C 8.9375 30.820312 8.992188 30.761719 9.058594 30.761719 L 49.171875 30.761719 C 49.242188 30.761719 49.296875 30.820312 49.296875 30.886719 C 49.296875 30.957031 49.242188 31.011719 49.171875 31.011719 Z M 49.171875 31.011719 " fill-opacity="1" fill-rule="nonzero"/><path fill="#ffffff" d="M 49.296875 37.757812 L 8.8125 37.757812 C 8.742188 37.757812 8.6875 37.703125 8.6875 37.632812 C 8.6875 37.566406 8.742188 37.511719 8.8125 37.511719 L 49.296875 37.511719 C 49.363281 37.511719 49.421875 37.566406 49.421875 37.632812 C 49.421875 37.703125 49.363281 37.757812 49.296875 37.757812 Z M 49.296875 37.757812 " fill-opacity="1" fill-rule="nonzero"/><path fill="#ffffff" d="M 49.234375 44.503906 L 8.75 44.503906 C 8.683594 44.503906 8.625 44.449219 8.625 44.382812 C 8.625 44.3125 8.683594 44.257812 8.75 44.257812 L 49.234375 44.257812 C 49.304688 44.257812 49.359375 44.3125 49.359375 44.382812 C 49.359375 44.449219 49.304688 44.503906 49.234375 44.503906 Z M 49.234375 44.503906 " fill-opacity="1" fill-rule="nonzero"/><path fill="#ffffff" d="M 42.515625 51.425781 C 42.445312 51.425781 42.390625 51.371094 42.390625 51.300781 L 42.390625 10.832031 C 42.390625 10.765625 42.445312 10.707031 42.515625 10.707031 C 42.582031 10.707031 42.640625 10.765625 42.640625 10.832031 L 42.640625 51.300781 C 42.640625 51.371094 42.582031 51.425781 42.515625 51.425781 Z M 42.515625 51.425781 " fill-opacity="1" fill-rule="nonzero"/><path fill="#ffffff" d="M 35.769531 51.550781 C 35.699219 51.550781 35.644531 51.496094 35.644531 51.425781 L 35.644531 10.957031 C 35.644531 10.886719 35.699219 10.832031 35.769531 10.832031 C 35.835938 10.832031 35.890625 10.886719 35.890625 10.957031 L 35.890625 51.425781 C 35.890625 51.496094 35.835938 51.550781 35.769531 51.550781 Z M 35.769531 51.550781 " fill-opacity="1" fill-rule="nonzero"/><path fill="#ffffff" d="M 29.019531 51.550781 C 28.953125 51.550781 28.894531 51.496094 28.894531 51.425781 L 28.894531 10.957031 C 28.894531 10.886719 28.953125 10.832031 29.019531 10.832031 C 29.089844 10.832031 29.144531 10.886719 29.144531 10.957031 L 29.144531 51.425781 C 29.144531 51.496094 29.089844 51.550781 29.019531 51.550781 Z M 29.019531 51.550781 " fill-opacity="1" fill-rule="nonzero"/><path fill="#ffffff" d="M 22.273438 51.675781 C 22.203125 51.675781 22.148438 51.621094 22.148438 51.550781 L 22.148438 10.707031 C 22.148438 10.640625 22.203125 10.582031 22.273438 10.582031 C 22.339844 10.582031 22.398438 10.640625 22.398438 10.707031 L 22.398438 51.550781 C 22.398438 51.621094 22.339844 51.675781 22.273438 51.675781 Z M 22.273438 51.675781 " fill-opacity="1" fill-rule="nonzero"/><path fill="#ffffff" d="M 15.527344 51.613281 C 15.457031 51.613281 15.402344 51.558594 15.402344 51.488281 L 15.402344 10.644531 C 15.402344 10.578125 15.457031 10.519531 15.527344 10.519531 C 15.59375 10.519531 15.648438 10.578125 15.648438 10.644531 L 15.648438 51.488281 C 15.648438 51.558594 15.59375 51.613281 15.527344 51.613281 Z M 15.527344 51.613281 " fill-opacity="1" fill-rule="nonzero"/><g clip-path="url(#c6b9aad7f3)"><path fill="#ffffff" d="M 10.296875 17.886719 L 7.820312 17.886719 C 7.546875 17.886719 7.328125 17.664062 7.328125 17.390625 C 7.328125 17.117188 7.546875 16.898438 7.820312 16.898438 L 10.296875 16.898438 C 10.570312 16.898438 10.792969 17.117188 10.792969 17.390625 C 10.792969 17.664062 10.570312 17.886719 10.296875 17.886719 Z M 10.296875 17.886719 " fill-opacity="1" fill-rule="nonzero"/></g><g clip-path="url(#995606a5ef)"><path fill="#ffffff" d="M 10.296875 24.636719 L 7.820312 24.636719 C 7.546875 24.636719 7.328125 24.414062 7.328125 24.140625 C 7.328125 23.867188 7.546875 23.644531 7.820312 23.644531 L 10.296875 23.644531 C 10.570312 23.644531 10.792969 23.867188 10.792969 24.140625 C 10.792969 24.414062 10.570312 24.636719 10.296875 24.636719 Z M 10.296875 24.636719 " fill-opacity="1" fill-rule="nonzero"/></g><g clip-path="url(#54d8724355)"><path fill="#ffffff" d="M 10.296875 44.875 L 7.820312 44.875 C 7.546875 44.875 7.328125 44.65625 7.328125 44.382812 C 7.328125 44.109375 7.546875 43.886719 7.820312 43.886719 L 10.296875 43.886719 C 10.570312 43.886719 10.792969 44.109375 10.792969 44.382812 C 10.792969 44.65625 10.570312 44.875 10.296875 44.875 Z M 10.296875 44.875 " fill-opacity="1" fill-rule="nonzero"/></g><g clip-path="url(#9237ea92ae)"><path fill="#ffffff" d="M 10.296875 38.128906 L 7.820312 38.128906 C 7.546875 38.128906 7.328125 37.90625 7.328125 37.632812 C 7.328125 37.359375 7.546875 37.140625 7.820312 37.140625 L 10.296875 37.140625 C 10.570312 37.140625 10.792969 37.359375 10.792969 37.632812 C 10.792969 37.90625 10.570312 38.128906 10.296875 38.128906 Z M 10.296875 38.128906 " fill-opacity="1" fill-rule="nonzero"/></g><g clip-path="url(#d5a6a61677)"><path fill="#ffffff" d="M 10.296875 31.382812 L 7.820312 31.382812 C 7.546875 31.382812 7.328125 31.160156 7.328125 30.886719 C 7.328125 30.613281 7.546875 30.390625 7.820312 30.390625 L 10.296875 30.390625 C 10.570312 30.390625 10.792969 30.613281 10.792969 30.886719 C 10.792969 31.160156 10.570312 31.382812 10.296875 31.382812 Z M 10.296875 31.382812 " fill-opacity="1" fill-rule="nonzero"/></g><path fill="#ffffff" d="M 15.496094 52.863281 C 15.222656 52.863281 15.003906 52.640625 15.003906 52.367188 L 15.003906 49.890625 C 15.003906 49.617188 15.222656 49.394531 15.496094 49.394531 C 15.769531 49.394531 15.992188 49.617188 15.992188 49.890625 L 15.992188 52.367188 C 15.992188 52.640625 15.769531 52.863281 15.496094 52.863281 Z M 15.496094 52.863281 " fill-opacity="1" fill-rule="nonzero"/><path fill="#ffffff" d="M 22.246094 52.863281 C 21.972656 52.863281 21.75 52.640625 21.75 52.367188 L 21.75 49.890625 C 21.75 49.617188 21.972656 49.394531 22.246094 49.394531 C 22.519531 49.394531 22.742188 49.617188 22.742188 49.890625 L 22.742188 52.367188 C 22.742188 52.640625 22.519531 52.863281 22.246094 52.863281 Z M 22.246094 52.863281 " fill-opacity="1" fill-rule="nonzero"/><path fill="#ffffff" d="M 42.488281 52.863281 C 42.214844 52.863281 41.992188 52.640625 41.992188 52.367188 L 41.992188 49.890625 C 41.992188 49.617188 42.214844 49.394531 42.488281 49.394531 C 42.761719 49.394531 42.984375 49.617188 42.984375 49.890625 L 42.984375 52.367188 C 42.984375 52.640625 42.761719 52.863281 42.488281 52.863281 Z M 42.488281 52.863281 " fill-opacity="1" fill-rule="nonzero"/><path fill="#ffffff" d="M 35.738281 52.863281 C 35.464844 52.863281 35.246094 52.640625 35.246094 52.367188 L 35.246094 49.890625 C 35.246094 49.617188 35.464844 49.394531 35.738281 49.394531 C 36.011719 49.394531 36.234375 49.617188 36.234375 49.890625 L 36.234375 52.367188 C 36.234375 52.640625 36.011719 52.863281 35.738281 52.863281 Z M 35.738281 52.863281 " fill-opacity="1" fill-rule="nonzero"/><path fill="#ffffff" d="M 28.992188 52.863281 C 28.71875 52.863281 28.496094 52.640625 28.496094 52.367188 L 28.496094 49.890625 C 28.496094 49.617188 28.71875 49.394531 28.992188 49.394531 C 29.265625 49.394531 29.488281 49.617188 29.488281 49.890625 L 29.488281 52.367188 C 29.488281 52.640625 29.265625 52.863281 28.992188 52.863281 Z M 28.992188 52.863281 " fill-opacity="1" fill-rule="nonzero"/><path fill="#ffffff" d="M 52.144531 48.339844 C 52.019531 48.339844 51.890625 48.289062 51.792969 48.191406 L 49.398438 45.765625 C 49.203125 45.570312 49.207031 45.257812 49.402344 45.066406 C 49.59375 44.871094 49.910156 44.875 50.101562 45.070312 L 52.5 47.496094 C 52.691406 47.691406 52.6875 48.003906 52.492188 48.195312 C 52.398438 48.292969 52.273438 48.339844 52.144531 48.339844 Z M 52.144531 48.339844 " fill-opacity="1" fill-rule="nonzero"/><path fill="#ffffff" d="M 49.75 48.339844 C 49.625 48.339844 49.496094 48.292969 49.402344 48.195312 C 49.207031 48.003906 49.203125 47.691406 49.398438 47.496094 L 51.792969 45.070312 C 51.984375 44.875 52.300781 44.871094 52.492188 45.066406 C 52.6875 45.257812 52.691406 45.570312 52.5 45.765625 L 50.101562 48.191406 C 50.003906 48.289062 49.875 48.339844 49.75 48.339844 Z M 49.75 48.339844 " fill-opacity="1" fill-rule="nonzero"/><path fill="#ffffff" d="M 13.144531 9.902344 C 13.003906 9.902344 12.859375 9.839844 12.761719 9.71875 L 11.234375 7.847656 C 11.0625 7.632812 11.09375 7.324219 11.304688 7.148438 C 11.515625 6.976562 11.828125 7.007812 12 7.21875 L 13.53125 9.09375 C 13.703125 9.304688 13.671875 9.617188 13.457031 9.789062 C 13.367188 9.867188 13.257812 9.902344 13.144531 9.902344 Z M 13.144531 9.902344 " fill-opacity="1" fill-rule="nonzero"/><path fill="#ffffff" d="M 11.660156 13.121094 C 11.570312 13.121094 11.484375 13.097656 11.402344 13.050781 C 11.167969 12.90625 11.09375 12.601562 11.238281 12.367188 L 14.332031 7.277344 C 14.476562 7.042969 14.78125 6.96875 15.015625 7.109375 C 15.246094 7.253906 15.320312 7.558594 15.179688 7.789062 L 12.082031 12.882812 C 11.988281 13.035156 11.828125 13.121094 11.660156 13.121094 Z M 11.660156 13.121094 " fill-opacity="1" fill-rule="nonzero"/></svg>