<svg xmlns="http://www.w3.org/2000/svg" xmlns:xlink="http://www.w3.org/1999/xlink" width="1920" zoomAndPan="magnify" viewBox="0 0 1440 809.999993" height="1080" preserveAspectRatio="xMidYMid meet" version="1.0"><defs><filter x="0%" y="0%" width="100%" height="100%" id="80edce9ef3"><feColorMatrix values="0 0 0 0 1 0 0 0 0 1 0 0 0 0 1 0 0 0 1 0" color-interpolation-filters="sRGB"/></filter><mask id="d208a034db"><g filter="url(#80edce9ef3)"><rect x="-144" width="1728" fill="#000000" y="-80.999999" height="971.999992" fill-opacity="0.7"/></g></mask><clipPath id="64acc5d60f"><path d="M 218 56 L 1387 56 L 1387 810 L 218 810 Z M 218 56 " clip-rule="nonzero"/></clipPath><clipPath id="dd41fef80f"><path d="M 1716.949219 1813.871094 L -15.535156 1250.605469 L 461.699219 -217.265625 L 2194.183594 346 Z M 1716.949219 1813.871094 " clip-rule="nonzero"/></clipPath><clipPath id="21196de099"><path d="M 1716.949219 1813.871094 L -15.535156 1250.605469 L 461.699219 -217.265625 L 2194.183594 346 Z M 1716.949219 1813.871094 " clip-rule="nonzero"/></clipPath><clipPath id="187ed083bb"><rect x="0" width="1387" y="0" height="810"/></clipPath></defs><rect x="-144" width="1728" fill="#ffffff" y="-80.999999" height="971.999992" fill-opacity="1"/><rect x="-144" width="1728" fill="#ffffff" y="-80.999999" height="971.999992" fill-opacity="1"/><g mask="url(#d208a034db)"><g transform="matrix(1, 0, 0, 1, 53, 0.000000000000039746)"><g clip-path="url(#187ed083bb)"><g clip-path="url(#64acc5d60f)"><g clip-path="url(#dd41fef80f)"><g clip-path="url(#21196de099)"><path fill="#bbdfd7" d="M 1764.007812 1501.453125 C 1839.792969 1432.8125 1854.15625 1318.449219 1857.871094 1215.460938 C 1861.597656 1112.457031 1862.597656 1001.070312 1923.015625 917.691406 C 1941.277344 892.476562 1964.683594 870.445312 1976.445312 841.488281 C 1998.914062 786.195312 1970.839844 721.484375 1926.632812 684.777344 C 1882.4375 648.074219 1825.515625 632.5625 1770.847656 616.019531 C 1716.179688 599.480469 1659.785156 579.589844 1620.789062 537.050781 C 1541.652344 450.71875 1561.808594 306.308594 1503.964844 203.171875 C 1460.039062 124.839844 1374.847656 79.519531 1288.082031 64.121094 C 1201.3125 48.703125 1111.804688 59.339844 1023.734375 69.988281 C 893.277344 85.769531 761.789062 101.773438 636.339844 144.171875 C 519.691406 183.59375 407.289062 247.683594 327.542969 345.207031 C 247.78125 442.722656 204.660156 576.835938 232.886719 698.808594 C 256.054688 798.875 324.683594 895.554688 295.257812 995.261719 C 277.96875 1053.855469 228.570312 1100.730469 220.121094 1161.152344 C 200.84375 1299.15625 372.445312 1376.636719 476.511719 1394.550781 C 601.03125 1415.988281 723.128906 1378.265625 834.445312 1318.195312 C 906.460938 1279.347656 980.15625 1225.390625 1064.402344 1240.234375 C 1189.933594 1262.355469 1282.546875 1393.667969 1380.125 1466.570312 C 1485.265625 1545.140625 1648.824219 1605.785156 1764.007812 1501.453125 " fill-opacity="1" fill-rule="nonzero"/></g></g></g></g></g></g></svg>