<svg xmlns="http://www.w3.org/2000/svg" xmlns:xlink="http://www.w3.org/1999/xlink" width="1920" zoomAndPan="magnify" viewBox="0 0 1440 809.999993" height="1080" preserveAspectRatio="xMidYMid meet" version="1.0"><defs><filter x="0%" y="0%" width="100%" height="100%" id="81be55d68d"><feColorMatrix values="0 0 0 0 1 0 0 0 0 1 0 0 0 0 1 0 0 0 1 0" color-interpolation-filters="sRGB"/></filter><mask id="5fec7ec5df"><g filter="url(#81be55d68d)"><rect x="-144" width="1728" fill="#000000" y="-80.999999" height="971.999992" fill-opacity="0.6"/></g></mask><clipPath id="951f772f08"><path d="M 0 0 L 1440 0 L 1440 810 L 0 810 Z M 0 0 " clip-rule="nonzero"/></clipPath><clipPath id="e07a98c7e8"><path d="M 128.039062 -921.769531 L 2404.0625 713.808594 L 1672.714844 1731.53125 L -603.308594 95.957031 Z M 128.039062 -921.769531 " clip-rule="nonzero"/></clipPath><clipPath id="7b0fd51adc"><path d="M 128.039062 -921.769531 L 2404.0625 713.808594 L 1672.714844 1731.53125 L -603.308594 95.957031 Z M 128.039062 -921.769531 " clip-rule="nonzero"/></clipPath><clipPath id="e9f82ebf2c"><rect x="0" width="1440" y="0" height="810"/></clipPath></defs><rect x="-144" width="1728" fill="#ffffff" y="-80.999999" height="971.999992" fill-opacity="1"/><rect x="-144" width="1728" fill="#ffffff" y="-80.999999" height="971.999992" fill-opacity="1"/><g mask="url(#5fec7ec5df)"><g transform="matrix(1, 0, 0, 1, 0, 0.000000000000039746)"><g clip-path="url(#e9f82ebf2c)"><g clip-path="url(#951f772f08)"><g clip-path="url(#e07a98c7e8)"><g clip-path="url(#7b0fd51adc)"><path fill="#bbdfd7" d="M -356.648438 -238.824219 C -295.960938 -328.335938 -188.96875 -363.335938 -96.949219 -410.402344 C -6.851562 -456.519531 80.273438 -508.921875 184.839844 -510.382812 C 242.988281 -511.226562 298.015625 -491.832031 337.792969 -448.484375 C 394.984375 -386.140625 446.601562 -197.808594 563.15625 -258.671875 C 625.585938 -291.285156 673.796875 -349.464844 741.359375 -372.421875 C 821.023438 -399.558594 907.703125 -361.347656 947.675781 -288.613281 C 992.089844 -207.882812 959.410156 -108.351562 971.867188 -21.417969 C 979.859375 34.375 1007.859375 79.230469 1061.230469 101.433594 C 1120.191406 125.980469 1184.183594 109.113281 1244.441406 100.472656 C 1297.582031 92.832031 1353.144531 104.390625 1401.042969 128.84375 C 1499.371094 178.988281 1567.90625 282.433594 1579.625 391.753906 C 1591.539062 503.03125 1568.851562 629.457031 1628.226562 730.464844 C 1696.34375 846.339844 1850.671875 846.089844 1954.566406 912.382812 C 2054.253906 976.015625 2090.042969 1114.707031 2028.824219 1216.5 C 1969.871094 1314.535156 1848.65625 1374.085938 1735.390625 1367.402344 C 1709.835938 1365.914062 1684.515625 1360.960938 1660.375 1352.339844 C 1598.398438 1330.0625 1556.335938 1275.320312 1494.179688 1255.316406 C 1433.277344 1235.703125 1368.027344 1251.082031 1305.742188 1252.011719 C 1011.21875 1256.636719 1079.230469 883 857.28125 785.414062 C 782.238281 752.367188 694.582031 769.976562 615.621094 772.449219 C 489.964844 776.433594 390.195312 731.941406 342.78125 612.464844 C 306.753906 521.6875 301.769531 422.226562 269.867188 330.265625 C 243.800781 255.082031 196.296875 193.738281 117.25 171.125 C 9.339844 140.285156 -102.777344 171.890625 -212.320312 159.222656 C -240.195312 155.996094 -267.929688 150.253906 -293.933594 139.566406 C -337.191406 121.71875 -372.640625 89.554688 -392.789062 47.140625 C -412.941406 4.722656 -417.179688 -40.296875 -412.691406 -85.011719 C -407.21875 -140.003906 -387.542969 -193.296875 -356.648438 -238.824219 Z M -356.648438 -238.824219 " fill-opacity="1" fill-rule="nonzero"/></g></g></g></g></g></g></svg>